<svg xmlns="http://www.w3.org/2000/svg" version="1.1" viewBox="-2.0 -10.0 110.0 135.0">
 <path d="m75.969 45.309c-0.85156-0.85938-1.7734-1.6289-2.7305-2.3242v-3.2812c0-3.5117-1.3555-6.8164-3.8203-9.3086-2.4648-2.4922-5.7422-3.8633-9.2266-3.8633-3.9062 0-7.5742 1.7812-10.047 4.7969-3.1992-2.8711-7.0039-5.0742-11.203-6.4102l-19.418-19.621c-0.38672-0.39062-1.0234-0.39453-1.4141-0.007813-0.39453 0.39063-0.39453 1.0234-0.007813 1.4141l13.715 13.859-4.1484 4.1914-8.4609-8.5508c-0.38672-0.39062-1.0195-0.39453-1.4141-0.007813-0.39453 0.39063-0.39453 1.0234-0.007813 1.4141l14.32 14.469c1.9062 6.168 5.6328 11.449 10.578 15.234-3.0938 3.9531-4.8047 8.8477-4.8047 13.922v32.766c0 0.55469 0.44531 1 1 1 0.55469 0 1-0.44531 1-1l0.003906-32.766c0-4.6562 1.5781-9.1445 4.4336-12.758 0.91016 0.60547 1.8516 1.1719 2.832 1.6797v13.891c0 7.2617 5.8516 13.172 13.043 13.172s13.043-5.9062 13.043-13.172v-18.535c0.44922 0.38281 0.89062 0.78125 1.3086 1.207 3.8398 3.8828 5.9531 9.0391 5.9531 14.52v32.766c0 0.55469 0.44531 1 1 1 0.55469 0 1-0.44531 1-1l0.003906-32.77c0-6.0117-2.3203-11.668-6.5312-15.926zm-42.742-23.324 3.8359 3.875-4.1484 4.1914-3.832-3.875 4.1484-4.1914zm38.012 42.059c0 6.1602-4.9531 11.172-11.043 11.172-6.0898 0-11.043-5.0117-11.043-11.172v-12.953c1.0273 0.44141 2.0781 0.83594 3.1641 1.1602 0.097656 0.027344 0.19141 0.042969 0.28906 0.042969 0.42969 0 0.82812-0.27734 0.95703-0.71094 0.16016-0.52734-0.14062-1.0859-0.66797-1.2461-8.9648-2.707-15.957-9.6445-18.812-18.621l0.34766-0.35156c0.32422 1.0703 0.91797 2.4961 2.0352 4.1797 0.19141 0.28906 0.51172 0.44531 0.83203 0.44531 0.19141 0 0.38281-0.054687 0.55469-0.16797 0.46094-0.30469 0.58594-0.92578 0.27734-1.3867-1.5273-2.2969-1.9375-4.0156-2.0508-4.7383l0.64062-0.64844c1.0508 0.17188 4.1719 0.99609 8.0898 4.9531 0.19531 0.19531 0.45312 0.29688 0.71094 0.29688 0.25391 0 0.50781-0.097656 0.70312-0.28906 0.39453-0.39062 0.39453-1.0234 0.007813-1.4141-3.2695-3.3047-6.0898-4.6484-7.8711-5.2031l0.42578-0.42969c8.6211 2.8984 15.375 9.7305 18.238 18.445l-1.6211 1.6406c-3.0508-1.1016-5.8672-2.7148-8.3789-4.8008-0.42578-0.35156-1.0547-0.29297-1.4062 0.13281-0.35156 0.42578-0.29297 1.0547 0.13281 1.4062 2.8594 2.375 6.0938 4.1797 9.6016 5.3633 0.35938 0.12109 0.76172 0.027343 1.0312-0.24609l2.4922-2.5195c0.25781-0.26172 0.35156-0.64453 0.24609-0.99609-1.4844-4.8477-4.0938-9.168-7.5195-12.668 2.0938-2.6289 5.2383-4.1875 8.5977-4.1875 2.9453 0 5.7148 1.1602 7.8047 3.2695s3.2422 4.918 3.2422 7.8984v24.34zm-15.215-11.297c-0.26563 0-0.52344 0.10547-0.71094 0.29688-0.35938 0.36328-3.5312 3.6562-3.5312 6.7891 0 2.3594 1.9023 4.2773 4.2422 4.2773 2.3398 0 4.2422-1.918 4.2422-4.2773 0-3.1289-3.1719-6.4219-3.5312-6.7891-0.1875-0.19141-0.44531-0.29688-0.71094-0.29688zm0 9.3594c-1.2383 0-2.2422-1.0195-2.2422-2.2773 0-1.5195 1.2852-3.418 2.2422-4.5859 0.96094 1.1641 2.2422 3.0625 2.2422 4.5859 0 1.2539-1.0078 2.2773-2.2422 2.2773z"/>
</svg>