<?xml version="1.0" encoding="utf-8"?>
<!DOCTYPE svg PUBLIC "-//W3C//DTD SVG 1.0//EN" "http://www.w3.org/TR/2001/REC-SVG-20010904/DTD/svg10.dtd">
<svg version="1.0" xmlns="http://www.w3.org/2000/svg" width="512px" height="512px" viewBox="0 0 512 512" preserveAspectRatio="xMidYMid meet">
 <g fill="#000000">
  <path d="M19 493.8 c0 -0.7 7.4 -28.2 16.5 -61.2 l16.4 -59.8 -7.4 -15.2 c-44.7 -91.5 -26.7 -199.1 45.4 -271.5 37.4 -37.6 84.2 -60.5 139.6 -68.3 11.7 -1.6 44.3 -1.6 56.5 0.1 81.6 11.1 149.2 59.3 184.6 131.6 16.7 34.3 23.8 65.3 23.8 104 0 39 -7 69.4 -23.9 104 -34.2 70.3 -100.3 118.9 -178.5 131.2 -16 2.5 -52.9 2.5 -68.8 0 -24 -3.8 -49.6 -11.7 -69.6 -21.6 l-9.9 -4.9 -60.3 15.8 c-33.1 8.7 -61.2 16.1 -62.3 16.5 -1.4 0.4 -2.1 0.2 -2.1 -0.7z m257.1 -42.8 c87.1 -8.7 158.3 -72.5 175.4 -157.4 12.2 -60.7 -3.3 -121.1 -43.4 -168.8 -26.1 -31.1 -65.2 -54.9 -105.1 -64.2 -21.5 -4.9 -52.3 -6.2 -73.5 -3.1 -43.1 6.4 -81.4 25.6 -111.9 56.1 -64.7 64.8 -76.8 165 -29.2 243.4 l5.8 9.5 -10 36.5 c-5.5 20.1 -10 36.6 -9.9 36.7 0.2 0.1 17.1 -4.3 37.7 -9.7 l37.4 -9.8 7.6 4.3 c36.7 21.2 78.5 30.5 119.1 26.5z"/>
  <path d="M300.5 365 c-9.5 -2.5 -26.9 -8.8 -39.1 -14.2 -21 -9.3 -40.4 -23 -61.4 -43.4 -29.3 -28.6 -53.6 -63.8 -59.9 -87.3 -7 -25.6 -0.8 -49.6 17.3 -67.6 7.1 -7.1 10.8 -8.5 21.8 -8.5 9.4 0 13.2 1.3 15.7 5.3 1.9 3.2 17.8 40.8 21.2 50.2 1.5 4.3 1.6 5.4 0.4 8.2 -1.4 3.3 -6.8 11.1 -14.2 20.1 -5.4 6.8 -5.6 9.7 -0.7 17.8 12.9 21.4 33.4 41.9 54.9 54.9 10.6 6.4 26.8 13.5 30.7 13.5 3.7 0 6.6 -2.9 19.5 -19.3 5.3 -6.7 9.4 -10.9 11 -11.3 3.3 -0.9 8.1 1.1 35 14.2 19.8 9.5 23.5 11.7 24.4 14.1 1.5 3.6 -0.3 17.1 -3.3 25.1 -4.1 10.9 -18.2 22.4 -34 27.6 -6.6 2.3 -9.3 2.6 -20 2.5 -8.6 0 -14.4 -0.6 -19.3 -1.9z"/>
 </g>
</svg>